{"title":"Bigg Boss - Season 4 - Episode 28 - 30 October 2010 - CBTorrents","uid":5925645,"size":312530944,"categoryP":"video","categoryS":"tv_shows","magnet":"?xt=urn:btih:3cb0f008b789cc9a252710a009ee78c12d550d5b&amp;dn=Bigg+Boss+-+Season+4+-+Episode+28+-+30+October+2010+-+CBTorrents&amp;tr=udp%3A%2F%2Ftracker.openbittorrent.com%3A80&amp;tr=udp%3A%2F%2Fopen.demonii.com%3A1337&amp;tr=udp%3A%2F%2Ftracker.coppersurfer.tk%3A6969&amp;tr=udp%3A%2F%2Fexodus.desync.com%3A6969","seeders":0,"leechers":0,"uploader":"CBTv","files":1,"time":1288596324,"description":" &lt;a href=&quot;http://www.cbtorrents.com&quot; rel=&quot;nofollow&quot; target=&quot;_NEW&quot;&gt;http://www.cbtorrents.com&lt;/a&gt;\n\nfor daily release update visit here ~&gt;&gt; &lt;a href=&quot; http://www.cbtorrents.com/forumdisplay.php?392-Bigg-Boss-Season-4&quot; rel=&quot;nofollow&quot; target=&quot;_NEW&quot;&gt; http://www.cbtorrents.com/forumdisplay.php?392-Bigg-Boss-Season-4&lt;/a&gt;\n\nscreenshots &amp; Info ~&gt; http://www.cbtorrents.com/showthread.php?6482-Bigg-Boss-Season-4-Episode-28-30-October-2010-XviD-MP3-Team-CBTV\n\n\nInfo\n\nipper                           : snaink\n\nGeneral\n\nFormat                           : AVI\nFormat/Info                      : Audio Video Interleave\nFile size                        : 298 MiB\nDuration                         : 51mn 45s\nOverall bit rate                 : 805 Kbps\n\nVideo\nFormat                           : MPEG-4 Visual\nFormat profile                   : Advanced Simple@L5\nFormat settings, BVOP            : Yes\nFormat settings, QPel            : No\nFormat settings, GMC             : No warppoints\nFormat settings, Matrix          : Default (H.263)\nCodec ID                         : XVID\nCodec ID/Hint                    : XviD\nDuration                         : 51mn 45s\nBit rate                         : 699 Kbps\nWidth                            : 512 pixels\nHeight                           : 384 pixels\nDisplay aspect ratio             : 4:3\nFrame rate                       : 25.000 fps\nColor space                      : YUV\nChroma subsampling               : 4:2:0\nBit depth                        : 8 bits\nScan type                        : Progressive\nBits/(Pixel*Frame)               : 0.142\nStream size                      : 259 MiB (87%)\nWriting library                  : XviD 1.2.1 (UTC 2008-12-04)\n\nAudio\nFormat                           : MPEG Audio\nFormat version                   : Version 1\nFormat profile                   : Layer 3\nMode                             : Joint stereo\nMode extension                   : MS Stereo\nCodec ID                         : 55\nCodec ID/Hint                    : MP3\nDuration                         : 51mn 45s\nBit rate mode                    : Constant\nBit rate                         : 96.0 Kbps\nChannel(s)                       : 2 channels\nSampling rate                    : 32.0 KHz\nStream size                      : 35.5 MiB (12%)\nAlignment                        : Split accross interleaves\nInterleave, duration             : 40 ms (1.00 video frame)\nInterleave, preload duration     : 500 ms\nWriting library                  : LAME3.98r\n\n\nDownloaded from http://www.cbtorrents.com","torrent":{"xt":"urn:btih:3cb0f008b789cc9a252710a009ee78c12d550d5b","amp;dn":"Bigg+Boss+-+Season+4+-+Episode+28+-+30+October+2010+-+CBTorrents","amp;tr":["udp%3A%2F%2Ftracker.openbittorrent.com%3A80","udp%3A%2F%2Fopen.demonii.com%3A1337","udp%3A%2F%2Ftracker.coppersurfer.tk%3A6969","udp%3A%2F%2Fexodus.desync.com%3A6969"],"infoHash":"3cb0f008b789cc9a252710a009ee78c12d550d5b","infoHashBuffer":{"type":"Buffer","data":[60,176,240,8,183,137,204,154,37,39,16,160,9,238,120,193,45,85,13,91]},"announce":[],"urlList":[]}}